/* XPM */
static char *flower-top[] = {
"16 16 6 1",
"  c None",
"# c #bbbbbb",
"= c #cccccc",
"* c #dddddd",
"+ c #eeeeee",
"- c #ffffff",
"                ",
"                ",
"                ",
"                ",
"                ",
"       +-       ",
"      +-+-      ",
"     =*=*=*     ",
"      =*=*      ",
"      #         ",
"                ",
"                ",
"                ",
"                ",
"                ",
"                "
};
