/* XPM */
static char *ttsCube_xpm[] = {
/* width height num_colors chars_per_pixel */
"    16    16       79            2",
/* colors */
".. c #3f291b",
".# c #46291e",
".a c #472a1d",
".b c #472d20",
".c c #4a3022",
".d c #503321",
".e c #5b3524",
".f c #5b3828",
".g c #5f3c2c",
".h c #745039",
".i c #795543",
".j c #80523e",
".k c #825739",
".l c #835742",
".m c #84523c",
".n c #885c46",
".o c #915840",
".p c #945f44",
".q c #955a3e",
".r c #9b664b",
".s c #d8ad2d",
".t c #d8af2d",
".u c #dab12d",
".v c #e0bb2f",
".w c #e3c433",
".x c #e6b428",
".y c #e6bc2f",
".z c #e7c845",
".A c #e7d340",
".B c #e8bb2e",
".C c #e8c333",
".D c #e8c82f",
".E c #e8cc39",
".F c #e8d045",
".G c #e8d43e",
".H c #e9b92c",
".I c #e9ce34",
".J c #e9cf32",
".K c #eacc39",
".L c #eace2f",
".M c #eace36",
".N c #eace39",
".O c #eace3a",
".P c #ead03a",
".Q c #ead13a",
".R c #ead145",
".S c #ead239",
".T c #ead243",
".U c #ead245",
".V c #ead349",
".W c #ead34f",
".X c #ead352",
".Y c #ead441",
".Z c #ead451",
".0 c #ead544",
".1 c #ead54b",
".2 c #ead644",
".3 c #ebc937",
".4 c #ebd240",
".5 c #ecc738",
".6 c #edd13a",
".7 c #edd23a",
".8 c #edd949",
".9 c #eecd35",
"#. c #eed43b",
"## c #eed63c",
"#a c #eed73c",
"#b c #eed83d",
"#c c #efcd37",
"#d c #efdc4e",
"#e c #f0d038",
"#f c #f0dd52",
"#g c #f2d13a",
"#h c #fabf30",
"#i c #fbc331",
"#j c #fdc733",
"#k c #fdcd36",
"#l c #ffcb35",
"#m c #ffcc35",
/* pixels */
".t.s.u.v.w.E.P.N.3.5.4.2.8#d#f.K",
".z.i.l.m.l.l.h.h.h.h.h.l.h.l.i.K",
".F.n.d.k.d.k.f.p.g.r.g.p.e.r.n.L",
".U.j.#.q.a.q.a.q.a.q.#.o.#.o.m.J",
".R.h.k.d.k.g.r.d.r.d.k.e.p.f.l.S",
".T.h.q.b.p.b.r...p.b.p.b.k...h.Q",
".A.n.g.p.g.r.g.k.d.k.e.r.g.r.n.M",
".G.m.#.o.#.o.#.q.a.q.#.o.#.o.m.I",
".Y.n.r.g.r.e.k.g.r.f.p.f.r.g.n.D",
".V.h.k...k.c.p.b.k...k.a.r...h.O",
".W.l.f.p.g.r.d.k.d.k.f.p.f.p.l.C",
".X.j.a.q.#.o.#.q.a.q.a.q.#.o.j.y",
".Z.n.r.g.r.d.r.d.k.d.k.d.p.e.n.B",
".1.h.q.c.r.c.r...r.b.p...k...h.H",
".0.i.h.h.h.n.n.h.n.n.h.l.n.n.i.x",
"#b#a###..7.6#e.9#c#g#k#m#l#j#i#h"
};
