/* XPM */
static char *colorFlowerDye15[] = {
/* columns rows colors chars-per-pixel */
"16 16 7 1 ",
"  c #C3C3C3",
". c #E5E5E5",
"X c #EBEBEB",
"o c #EEEEEE",
"O c #F6F6F6",
"+ c white",
"@ c None",
/* pixels */
"@@@@@@@@@@@@@@@@",
"@@@@@@@@@@@@@@@@",
"@@@@@@@@@@@@@@@@",
"@@@@@@@@@@@@@@@@",
"@@@@@@    @@@@@@",
"@@@@  +OOo  @@@@",
"@@@ ++O++o.X @@@",
"@@ +OO++OOo.o @@",
"@@ +O++O++o.o @@",
"@@ o++OO+.oo. @@",
"@@@ oo++oo.. @@@",
"@@@@  oo.o  @@@@",
"@@@@@@    @@@@@@",
"@@@@@@@@@@@@@@@@",
"@@@@@@@@@@@@@@@@",
"@@@@@@@@@@@@@@@@"
};
