/* XPM */
static char *colorFlowerDye0[] = {
/* columns rows colors chars-per-pixel */
"16 16 7 1 ",
"  c #1A1818",
". c #221F1F",
"X c #232121",
"o c #242121",
"O c #262323",
"+ c #282525",
"@ c None",
/* pixels */
"@@@@@@@@@@@@@@@@",
"@@@@@@@@@@@@@@@@",
"@@@@@@@@@@@@@@@@",
"@@@@@@@@@@@@@@@@",
"@@@@@@    @@@@@@",
"@@@@  +OOO  @@@@",
"@@@ ++O+OO.X @@@",
"@@ +OO++OOX.O @@",
"@@ OO++OO+X.X @@",
"@@ O++OO+.XO. @@",
"@@@ OXO+OX.. @@@",
"@@@@  XO.X  @@@@",
"@@@@@@    @@@@@@",
"@@@@@@@@@@@@@@@@",
"@@@@@@@@@@@@@@@@",
"@@@@@@@@@@@@@@@@"
};
