/* XPM */
static char *rf_64[] = {
/* columns rows colors chars-per-pixel */
"16 16 18 1 ",
"  c None",
". c #213F10390CD1",
"X c #3A0817910C0D",
"o c #3AE1268D0C35",
"O c #3C5B31E50ECC",
"+ c #47411B190BDC",
"@ c #55BB1C600E70",
"# c #5E7A1CE81429",
"$ c #695E1D461309",
"% c #464B24090C42",
"& c #508D243D0E80",
"* c #48E827D71411",
"= c #587228C416A6",
"- c #4BD433911170",
"; c #607227630E1B",
": c #639B253F1A52",
"> c #52A62E5B20E3",
", c #4A6031A722C2",
/* pixels */
"                ",
"         %..    ",
"       +%*..    ",
"      +O%:o..   ",
"     ;%>=@&*.;..",
"     %,=@=-&&%..",
"    *>=#>*=>o.. ",
"   *,**,#==*..  ",
"  *,:*,=@>%..   ",
" &,O==#%,@;++.. ",
" ;>+,==:&%XX..  ",
" X%=$>=+XXX..   ",
"  oo=oXX....    ",
"  X>%....       ",
"   ...          ",
"                "
};
