/* XPM */
static char *shears[] = {
"    16    16       12            1",
"  c None",
"# c #424242",
"a c #45322b",
"b c #4c4c4c",
"c c #515151",
"d c #553a30",
"e c #553c33",
"f c #616161",
"g c #634235",
"h c #707070",
"i c #00BC9B",
"j c #00E6BE",
"                ",
"                ",
"        dda     ",
"       dehij    ",
"      dehij j   ",
"     dehij jia  ",
"    dgaij jiha  ",
"    dga  jihea  ",
"   dga   ihea   ",
"   dga  daea    ",
"   c# ddgga     ",
"  h  bggaa      ",
"  f  #aa        ",
"   ff           ",
"                ",
"                "
};
