/* XPM */
static char *enderStar[] = {
/* width height num_colors chars_per_pixel */
"    16    16       38            1",
/* colors */
"J c None",
". c #070711",
"# c #08080c",
"a c #08080d",
"b c #090909",
"c c #09090d",
"d c #09090e",
"e c #09090f",
"f c #0d0d14",
"g c #0e0e15",
"h c #0e0e16",
"i c #0f0f0f",
"j c #0f0f14",
"k c #0f0f16",
"l c #0f0f17",
"m c #0f0f1a",
"n c #0f0f1c",
"o c #101017",
"p c #101018",
"q c #101019",
"r c #10101b",
"s c #10101e",
"t c #101023",
"u c #110e1d",
"v c #1b1528",
"w c #1e182b",
"x c #231d30",
"y c #30244a",
"z c #3a2e54",
"A c #3c3056",
"B c #463a60",
"C c #6f3f85",
"D c #704086",
"E c #74438b",
"F c #74448c",
"G c #ba3ff2",
"H c #c743ff",
"I c #d877ff",
/* pixels */
"JJJJJJJJJJJJJJJJ",
"JJJJJJJJJJJJJJJJ",
"JJJJJJJJAJJJJJJJ",
"JJJJJJJBwwJJJJJJ",
"JJJJJJfpifrJJJJJ",
"JJJJJJadEgeJJJJJ",
"JJJJAAAAIcAgaJJJ",
"JJJfpvwIHIw#yAJJ",
"JJAwlFIHGHICvwkJ",
"JJJsqopIHIj.wgJJ",
"JJJJkpmnIdhtpJJJ",
"JJJJJJpkDAlJJJJJ",
"JJJJJJugbzwJJJJJ",
"JJJJJJJpdxJJJJJJ",
"JJJJJJJJeJJJJJJJ",
"JJJJJJJJJJJJJJJJ"
};
