/* XPM */
static char * enderWand2_xpm[] = {
"16 16 23 1",
" 	c None",
".	c #1F1339",
"#  c #0E002D",
"e	c #616B59",
")	c #D8AF2D",
"+	c #D8AD2D",
"@	c #DAB12D",
"/	c #E0BB2F",
"$	c #E3C433",
"%	c #E7C845",
"-	c #E8BB2E",
";	c #E8D045",
"'	c #E9B92C",
"!	c #EAD245",
"^	c #E6B428",
"(	c #EAD145",
"_	c #FFCB35",
":	c #FDC733",
"<	c #FBC331",
"[	c #FABF30",
"d	c #2BC7AC",
"g	c #CDD050",
"G	c #EAEE57",
"           )+@/$",
"           %.#.-",
"           ;#e#'",
"          .!.#.^",
"          #(_:<[",
"         .##.   ",
"        .#.     ",
"       g#.      ",
"      gGg       ",
"     gGg        ",
"    gGg         ",
"   gGg          ",
"  gGg           ",
" gGg            ",
"gGg             ",
"gg              "};
