/* XPM */
static char * enderWand1_ghost_xpm[] = {
"16 16 7 1",
" 	c None",
".	c #1F1339",
"#  c #0E002D",
"=	c #999999",
"d	c #2BC7AC",
"g	c #CDD050",
"G	c #EAEE57",
"         =   ===",
"         == =  =",
"          ==   =",
"          .   = ",
"          #  =  ",
"         .##.== ",
"        .#.   ==",
"       g#.      ",
"      gGg       ",
"     gGg        ",
"    gGg         ",
"   gGg          ",
"  gGg           ",
" gGg            ",
"gGg             ",
"gg              "};
