/* XPM */
static char *enderWand[] = {
/* width height num_colors chars_per_pixel */
"    16    16       42            1",
/* colors */
". c None",
"# c #070711",
"a c #08080c",
"b c #08080d",
"c c #090909",
"d c #09090d",
"e c #09090e",
"f c #09090f",
"g c #0d0d14",
"h c #0e0e15",
"i c #0e0e16",
"j c #0f0f0f",
"k c #0f0f14",
"l c #0f0f16",
"m c #0f0f17",
"n c #0f0f1a",
"o c #0f0f1c",
"p c #101017",
"q c #101018",
"r c #101019",
"s c #10101b",
"t c #10101e",
"u c #101023",
"v c #110e1d",
"w c #1b1528",
"x c #1e182b",
"y c #231d30",
"z c #2bc7ac",
"A c #30244a",
"B c #33ebcb",
"C c #3a2e54",
"D c #3c3056",
"E c #463a60",
"F c #6f3f85",
"G c #704086",
"H c #74438b",
"I c #74448c",
"J c #ba3ff2",
"K c #c743ff",
"L c #cdd050",
"M c #d877ff",
"N c #eaee57",
/* pixels */
".........D......",
"........xxE.....",
"......zsgjqgz...",
".....zBfhHebBz..",
".....bhDdMDDDD..",
"....DAaxMKMxwqg.",
"...lxwFMKJKMImxD",
"....hx#kMKMqprt.",
".....quieMonql..",
".....LNmDGlqBz..",
"....LNLxCchvz...",
"...LNL..yeq.....",
"..LNL....f......",
".LNL............",
"LNL.............",
"LL.............."
};
