/* XPM */
static char * enderWand0_xpm[] = {
"16 16 8 1",
" 	c None",
".	c #1F1339",
"#	c #0E002D",
"p	c #6E3E85",
"P	c #BA3FF2",
"d	c #2BC7AC",
"g	c #CDD050",
"G	c #EAEE57",
"             .##",
"           d.#P#",
"           .#p#.",
"          .#p#. ",
"          #p#.d ",
"         .##.   ",
"        .#.     ",
"       g#.      ",
"      gGg       ",
"     gGg        ",
"    gGg         ",
"   gGg          ",
"  gGg           ",
" gGg            ",
"gGg             ",
"gg              "};
