/* XPM */
static char * enderMagnet-enabled_xpm[] = {
"16 16 7 1",
" 	c None",
".  c #1F1339",
"#  c #0E002D",
"p  c #6E3E85",
"P  c #BA3FF2",
"d  c #00BC9B",
"D	c #00E6BE",
"                ",
"      P  P      ",
"    p      p    ",
"                ",
"  .#        #.  ",
"  .P.      .P.  ",
"  #p#      #p#  ",
"  #.#      #.#  ",
"  .#.      .#.  ",
"  .#.      .#.  ",
"  .#.p    p.#.  ",
"   #dDp  pDd#   ",
"   dDd.##.dDd   ",
"    d##..##d    ",
"      .##.      ",
"                "};
