/* XPM */
static char *blockStoneBrick7[] = {
/* columns rows colors chars-per-pixel */
"16 16 43 1 ",
"  c #B3B3B3",
". c #AFAFAF",
"X c #B4B4B4",
"o c #B2B2B2",
"O c #AAAAAA",
"+ c #AFAFAF",
"@ c #ADADAD",
"# c #B0B0B0",
"$ c #A8A8A8",
"% c #AAAAAA",
"& c #A9A9A9",
"* c #8D8D8D",
"= c #A5A5A5",
"- c #9C9C9C",
"; c #999999",
": c #A0A0A0",
"> c #9D9D9D",
", c #8E8E8E",
"< c #949494",
"1 c #8B8B8B",
"2 c #959595",
"3 c #8C8C8C",
"4 c #999999",
"5 c #ACACAC",
"6 c #939393",
"7 c #989898",
"8 c #9C9C9C",
"9 c #979797",
"0 c #909090",
"q c #949494",
"w c #8A8A8A",
"e c #8E8E8E",
"r c #AEAEAE",
"t c #B7B7B7",
"y c #B2B2B2",
"u c #B1B1B1",
"i c #969696",
"p c #9A9A9A",
"a c #929292",
"s c #A7A7A7",
"d c #9B9B9B",
"f c #8C8C8C",
"g c gray81",
/* pixels */
" .XoOo+@@@@#$%&*",
"o===-===;::-::>,",
"O---=-:::=:::;<1",
"+;:=::-----::=23",
"@-----=====;:=41",
"5---:;::--;:--6,",
"$78422224490q47,",
"11111111w1,e**31",
"@+++oor3tyu$.oOo",
"--:;::i1@=::----",
"==-;-=p*+::::=--",
":::==:23o=;;:::-",
"---==-a1@-::----",
"::---;a,5==:=-=;",
"aaa2648esqd722aa",
"**3333111fe*3111"
};
