/* XPM */
static char *blockSmoothBrick1[] = {
/* columns rows colors chars-per-pixel */
"16 16 43 1 ",
"  c #9A2A26",
". c #962925",
"X c #982A25",
"o c #972925",
"O c #942824",
"+ c #962925",
"@ c #942924",
"# c #932824",
"$ c #952925",
"% c #912824",
"& c #912824",
"* c #8D2723",
"= c #7E221F",
"- c #8E2723",
"; c #8E2723",
": c #8D2723",
"> c #8B2622",
", c #8A2622",
"< c #8B2622",
"1 c #902723",
"2 c #892622",
"3 c #882522",
"4 c #7C221F",
"5 c #932824",
"6 c #892522",
"7 c #872521",
"8 c #862521",
"9 c #872521",
"0 c #7B221E",
"q c #842421",
"w c #8A2622",
"e c #8F2723",
"r c #852421",
"t c #882521",
"y c #8C2623",
"u c #8C2622",
"i c #852521",
"p c #7C221F",
"a c #922824",
"s c #7D221F",
"d c #7B221E",
"f c #79211E",
"g c #B3312C",
/* pixels */
" .XoO+@##@$$%&*=",
"o--;::>,<-1:2>34",
"5,637896>,>,2>90",
"@:>38q9,,2222w70",
"@e*67r89tt<yyu90",
"5y>2389tt7w<>wip",
"a:>23tw,696w<u34",
"O-,t97t39732><6p",
"a:>739t33>yyy:<4",
"5<277t3982u<>>,4",
"$u,tt><38w*:*u24",
"+<w3t2wwu*<><y24",
"O>2636t6uu39t29p",
"5-*u<>393t7t323s",
"u237iirq87337iq4",
"44sp0dd0p444p0df"
};
