/* XPM */
static char * chromaInfuser_top_xpm[] = {
"16 16 17 1",
" 	c None",
".	c #2C2C2C",
"+	c #393939",
"@	c #464646",
"#	c #484848",
"$	c #4A4A4A",
"%	c #4D4D4D",
"&	c #4E4E4E",
"*	c #505050",
"=	c #4C4C4C",
"-	c #454545",
";	c #373737",
">	c #3B3B3B",
",	c #414141",
"'	c #3D3D3D",
")	c #444444",
"!	c #2A2A2A",
".+@#$%&**&=$#-;.",
"+>,'',',)'''''>+",
"@,            '@",
"#'            '#",
"$,            ,$",
"%'            >%",
"&'            '&",
"*'            '*",
"*>            )*",
"&'            >&",
"=,            >=",
"$)            ,$",
"#'            '#",
"-'            '-",
";>''''','',,',';",
"!+@#$%&**&=$#-;!"};
