/* XPM */
static char * chromaInfuser_side_xpm[] = {
"16 16 67 1",
" 	c None",
".	c #2C2C2C",
"+	c #393939",
"@	c #464646",
"#	c #484848",
"$	c #4A4A4A",
"%	c #4D4D4D",
"&	c #4E4E4E",
"*	c #505050",
"=	c #4C4C4C",
"-	c #454545",
";	c #373737",
">	c #2A2A2A",
",	c #2B2B2B",
"'	c #383838",
")	c #494949",
"!	c #504242",
"~	c #583C3C",
"{	c #514335",
"]	c #435135",
"^	c #355243",
"/	c #344250",
"(	c #3B3B57",
"_	c #41414F",
":	c #444444",
"<	c #363636",
"[	c #292929",
"}	c #573A3A",
"|	c #504234",
"1	c #425034",
"2	c #335042",
"3	c #33414F",
"4	c #3A3A56",
"5	c #40404F",
"6	c #424242",
"7	c #353535",
"8	c #474747",
"9	c #563939",
"0	c #4D3F31",
"a	c #3E4D30",
"b	c #314D3F",
"c	c #32404E",
"d	c #40404E",
"e	c #414141",
"f	c #343434",
"g	c #4B4B4B",
"h	c #434343",
"i	c #404040",
"j	c #3E3E3E",
"k	c #282828",
"l	c #333333",
"m	c #3F3F3F",
"n	c #3D3D3D",
"o	c #323232",
"p	c #3C3C3C",
"q	c #313131",
"r	c #272727",
"s	c #303030",
"t	c #3A3A3A",
"u	c #3B3B3B",
"v	c #262626",
"w	c #2F2F2F",
"x	c #252525",
"y	c #2E2E2E",
"z	c #2D2D2D",
"A	c #242424",
"B	c #232323",
".+@#$%&**&=$#-;>",
",'@)!~{]^/(_#:<>",
"[<:#!}|12345@67[",
"[<:8!90abc4d-e7[",
"[f68))#))g)@hi7[",
"[7e-88@8#$#-ejfk",
"klm6h::88#@henlk",
"kopmi6h::--6ipqr",
"rstjjiehhh6ijuqr",
"vw'njmjieeemn+wv",
"xy;uppupnnnnu'wv",
"xz<tut+;'+uut'yv",
"xy<lzvABAxxzl'wv",
"xy<.        z'yv",
"xz;v        r'wv",
"vz;v        r'wv"};
