/* XPM */
static char * chromaInfuser_top_item_xpm[] = {
"16 16 106 2",
"  	c None",
". 	c #2C2C2C",
"+ 	c #393939",
"@ 	c #464646",
"# 	c #484848",
"$ 	c #4A4A4A",
"% 	c #4D4D4D",
"& 	c #4E4E4E",
"* 	c #505050",
"= 	c #4C4C4C",
"- 	c #454545",
"; 	c #373737",
"> 	c #3B3B3B",
", 	c #414141",
"' 	c #3D3D3D",
") 	c #444444",
"! 	c #5A2524",
"~ 	c #572724",
"{ 	c #502E23",
"] 	c #453824",
"^ 	c #394525",
"/ 	c #2F4E28",
"( 	c #284E2F",
"_ 	c #254539",
": 	c #233845",
"< 	c #232D50",
"[ 	c #232656",
"} 	c #232359",
"| 	c #6E1110",
"1 	c #69150F",
"2 	c #5D210F",
"3 	c #4B340F",
"4 	c #344911",
"5 	c #225816",
"6 	c #165822",
"7 	c #114934",
"8 	c #0F344B",
"9 	c #0F215D",
"0 	c #0F1569",
"a 	c #0F106E",
"b 	c #790605",
"c 	c #730C05",
"d 	c #641A05",
"e 	c #4D3205",
"f 	c #324C06",
"g 	c #1B5D0C",
"h 	c #0C5D1B",
"i 	c #064C32",
"j 	c #04324D",
"k 	c #041A64",
"l 	c #040C73",
"m 	c #040679",
"n 	c #7D0201",
"o 	c #760901",
"p 	c #671801",
"q 	c #4E3101",
"r 	c #314D02",
"s 	c #185F09",
"t 	c #095F18",
"u 	c #024D31",
"v 	c #01314E",
"w 	c #011867",
"x 	c #010976",
"y 	c #01027D",
"z 	c #7D0200",
"A 	c #770800",
"B 	c #671800",
"C 	c #4E3100",
"D 	c #186008",
"E 	c #086018",
"F 	c #00314E",
"G 	c #001867",
"H 	c #000877",
"I 	c #00027D",
"J 	c #790604",
"K 	c #730C04",
"L 	c #641A04",
"M 	c #4D3204",
"N 	c #1A5D0C",
"O 	c #0C5D1A",
"P 	c #05324D",
"Q 	c #051A65",
"R 	c #050C73",
"S 	c #050679",
"T 	c #6E100F",
"U 	c #4A340F",
"V 	c #344910",
"W 	c #215715",
"X 	c #155721",
"Y 	c #10344B",
"Z 	c #10215E",
"` 	c #10156A",
" .	c #10116E",
"..	c #592323",
"+.	c #562623",
"@.	c #502D23",
"#.	c #453823",
"$.	c #384524",
"%.	c #2E4D27",
"&.	c #274D2E",
"*.	c #244538",
"=.	c #243946",
"-.	c #242E51",
";.	c #242758",
">.	c #24255A",
",.	c #2A2A2A",
". + @ # $ % & * * & = $ # - ; . ",
"+ > , ' ' , ' , ) ' ' ' ' ' > + ",
"@ , ! ~ { ] ^ / ( _ : < [ } ' @ ",
"# ' | 1 2 3 4 5 6 7 8 9 0 a ' # ",
"$ , b c d e f g h i j k l m , $ ",
"% ' n o p q r s t u v w x y > % ",
"& ' z A B C r D E u F G H I ' & ",
"* ' z A B C r D E u F G H I ' * ",
"* > z A B C r D E u F G H I ) * ",
"& ' z A B C r D E u F G H I > & ",
"= , n o p q r s t u v w x y > = ",
"$ ) J K L M f N O i P Q R S , $ ",
"# ' T 1 2 U V W X 7 Y Z `  .' # ",
"- ' ..+.@.#.$.%.&.*.=.-.;.>.' - ",
"; > ' ' ' ' ' , ' ' , , ' , ' ; ",
",.+ @ # $ % & * * & = $ # - ; ,."};
