/* XPM */
static char * chromaInfuser_inner_xpm[] = {
"16 16 18 1",
" 	c None",
".	c #3B3B3B",
"+	c #3C3C3C",
"@	c #3D3D3D",
"#	c #3A3A3A",
"$	c #393939",
"%	c #383838",
"&	c #373737",
"*	c #353535",
"=	c #363636",
"-	c #343434",
";	c #323232",
">	c #333333",
",	c #2F2F2F",
"'	c #2E2E2E",
")	c #303030",
"!	c #2D2D2D",
"~	c #313131",
".+@++###...###..",
".++..######$##+@",
"...##$%$$#$##..+",
"...#%&***=%$#...",
".##$&-;;;>=%###$",
"+.#&-;,'')>=$##$",
"+.$=>,'!!'~-%$##",
"+.$*;'!!!!)>=%$#",
".#$=;'!!!!)>=%$#",
".#%=>)'''')-=%%$",
".#$%=>~)));*&$##",
"+.#$%&*->-*&$#..",
".+..##$%&&&%$#..",
".++....#$$##....",
"#+@++++........+",
".+@+@@@+++++++.+"};
