/* XPM */
static char *colorIronBars2[] = {
/* columns rows colors chars-per-pixel */
"16 16 51 1 ",
"  c #222F0F",
". c #23300F",
"X c #23310F",
"o c #24300F",
"O c #25320F",
"+ c #243110",
"@ c #243210",
"# c #253210",
"$ c #243310",
"% c #253310",
"& c #263310",
"* c #273511",
"= c #273611",
"- c #273711",
"; c #283611",
": c #283711",
"> c #293711",
", c #283612",
"< c #283712",
"1 c #2B3911",
"2 c #283812",
"3 c #293812",
"4 c #293912",
"5 c #2A3912",
"6 c #2B3912",
"7 c #2A3A12",
"8 c #2A3A13",
"9 c #2A3B13",
"0 c #2B3B13",
"q c #2C3A12",
"w c #2C3B12",
"e c #2D3B12",
"r c #2D3C12",
"t c #2C3C13",
"y c #2C3D13",
"u c #2E3D13",
"i c #2F3E13",
"p c #2D3E14",
"a c #2D3F14",
"s c #2E3F14",
"d c #2E4014",
"f c #304215",
"g c #324315",
"h c #314316",
"j c #344314",
"k c #354716",
"l c #344717",
"z c #354917",
"x c #354918",
"c c #364A18",
"v c None",
/* pixels */
"vv8#vvv6@vvvq%vv",
"vvk5vvvl4vvvq@vv",
"vvkat0lx=vvv0Ovv",
"vvg==$=g=vvv8%vv",
"vvu2vvve=vvv9%vv",
"vv:.vvv;Xvvvs%vv",
"vvl3vvv5$vvvl4vv",
"dlz9vvv5%vvvlpuw",
"$,h=vvv1%vvvf*-$",
"vvf>vvv7$vvvf:vv",
"vv:ovvvp$vvv2Xvv",
"vv9&vvvl7vvvl4vv",
"vv8%vvvlurilc-vv",
"vvq+vvvh=*%=j<vv",
"vv9#vvvu;vvvy=vv",
"vv0$vvv3 vvv2Xvv"
};
