/* XPM */
static char *colorIronBars14[] = {
/* columns rows colors chars-per-pixel */
"16 16 84 1 ",
"  c #895028",
". c #8C5228",
"X c #8D5228",
"o c #8D5229",
"O c #8E5229",
"+ c #915128",
"@ c #90522A",
"# c #91542A",
"$ c #91552A",
"% c #93542A",
"& c #92552A",
"* c #92552B",
"= c #93552B",
"- c #93562A",
"; c #93562B",
": c #955429",
"> c #94562B",
", c #95562B",
"< c #95562C",
"1 c #995629",
"2 c #9B5A2D",
"3 c #9C592D",
"4 c #9C5A2D",
"5 c #9C5B2D",
"6 c #9F5B2D",
"7 c #9D5B2E",
"8 c #9E5B2E",
"9 c #9D5C2D",
"0 c #9D5C2E",
"q c #9F5C2E",
"w c #9F5C2F",
"e c #A15A2C",
"r c #A35C2C",
"t c #A05D2E",
"y c #A05D2F",
"u c #A15E2F",
"i c #A25E2F",
"p c #A35E2F",
"a c #A45F2F",
"s c #AC602E",
"d c #AD602F",
"f c #AF622F",
"g c #B0622F",
"h c #A46030",
"j c #A56030",
"k c #A66030",
"l c #A76030",
"z c #A66130",
"x c #A86130",
"c c #A86031",
"v c #A86231",
"b c #A96231",
"n c #AA6231",
"m c #AA6331",
"M c #AC6432",
"N c #B16330",
"B c #B36430",
"V c #B06633",
"C c #B16633",
"Z c #B56531",
"A c #B76631",
"S c #B86631",
"D c #B96731",
"F c #B86732",
"G c #B36834",
"H c #B46934",
"J c #B66A35",
"K c #B76A35",
"L c #BA6832",
"P c #B86B35",
"I c #BF6E37",
"U c #BF6F37",
"Y c #C16F37",
"T c #C97137",
"R c #CE7035",
"E c #C37139",
"W c #C47139",
"Q c #CF783C",
"! c #D3783A",
"~ c #D4783A",
"^ c #D47B3D",
"/ c #D47B3E",
"( c #D67C3E",
") c None",
/* pixels */
"))v%)))d#)))g,))",
"))!l)))Qk)))f#))",
"))~JVmQ/8)))m:))",
"))T45&7T5)))n<))",
"))Au)))B7)))b=))",
"))q.)))eo)))K-))",
"))Qa)))k$)))Qj))",
"PQ^m)))c,)))QHSN",
"$wE4)))s>)))Y30=",
"))Ir)))z$)))Uq))",
"))t+)))G$)))uO))",
"))n1)))Qx)))Qh))",
"))n,)))QDZLQ(9))",
"))g@)))W92;4Ry))",
"))m*)))F6)))C7))",
"))M=)))p )))iX))"
};
