/* XPM */
static char *colorStone6[] = {
/* columns rows colors chars-per-pixel */
"16 16 6 1 ",
"  c #1C5269",
". c #1A4D63",
"X c #1E5A73",
"o c #18485C",
"O c #1C536A",
"+ c #287697",
/* pixels */
" .... XXoX .... ",
"  XXXX...XXXo  .",
" o..o...X.   X  ",
" X   o X  ..... ",
" XX.......XXXXXo",
"..   ... o  ..o ",
"XX O .XX    XXXo",
"   ......o....  ",
" XXoX.   XXXXXXX",
" ...... o  ...X ",
"  X..XX.o.XXX   ",
"o   .   XX   XXo",
" .......XX..... ",
" XXXXX ...o.  XX",
"   .....  XX .. ",
"....oXX    ...  "
};
