/* XPM */
static char *colorIronBars7[] = {
/* columns rows colors chars-per-pixel */
"16 16 95 2 ",
"   c #797979",
".  c #7F7B79",
"X  c #7B7C7A",
"o  c #7C7C7B",
"O  c #7C7C7C",
"+  c #7D7D7D",
"@  c #7F7D7F",
"#  c #7F7F7E",
"$  c #83807C",
"%  c #87827E",
"&  c #807F81",
"*  c #7F8180",
"=  c #818081",
"-  c #808181",
";  c #818181",
":  c #818281",
">  c #818381",
",  c #818182",
"<  c #838382",
"1  c #828383",
"2  c #838383",
"3  c #838284",
"4  c #8E8986",
"5  c #8F8C87",
"6  c #898789",
"7  c #898989",
"8  c #898A89",
"9  c #8A8A8A",
"0  c #8A8B8A",
"q  c #8A8A8B",
"w  c #8C8A8A",
"e  c #8A8A8C",
"r  c #8B8A8C",
"t  c #8C8B8E",
"y  c #8A8C8C",
"u  c #8C8C8C",
"i  c #8D8D8C",
"p  c #8D8D8E",
"a  c #8E8E8E",
"s  c #8F8F8E",
"d  c #90908E",
"f  c #97928C",
"g  c #98928E",
"h  c #9A958F",
"j  c #9B958F",
"k  c #919191",
"l  c #909291",
"z  c #929291",
"x  c #929391",
"c  c #929292",
"v  c #939293",
"b  c #949392",
"n  c #949294",
"m  c #959595",
"M  c #969595",
"N  c #959695",
"B  c #969695",
"V  c #949596",
"C  c #959596",
"Z  c #959696",
"A  c #969696",
"S  c #9B9590",
"D  c #9C9691",
"F  c #9D9792",
"G  c #979897",
"H  c #9F9994",
"J  c #9B9A9A",
"K  c #9C9C9C",
"L  c #9F9F9E",
"P  c #9E9F9F",
"I  c #A19B95",
"U  c #A29C96",
"Y  c #A39D96",
"T  c #A29C97",
"R  c #A49D97",
"E  c #A0A1A0",
"W  c #A1A1A1",
"Q  c #A2A3A2",
"!  c #A8A8A8",
"~  c #AAA9A8",
"^  c #ACACAC",
"/  c #ADACAD",
"(  c #B5ABA1",
")  c #B1ACA6",
"_  c #B1ACA7",
"`  c #B7B6B5",
"'  c #B6B6B7",
"]  c #B6B7B7",
"[  c #B7B7B7",
"{  c #BAB7B1",
"}  c #BBB7B2",
"|  c #BBBBBB",
" . c #BBBBBC",
".. c #BDBDBD",
"X. c None",
/* pixels */
"X.X.V = X.X.X.g = X.X.X.S 3 X.X.",
"X.X.{ v X.X.X.[ x X.X.X.S # X.X.",
"X.X.{ E J V '  .r X.X.X.V $ X.X.",
"X.X._ 8 8 = 8 _ 8 X.X.X.V 3 X.X.",
"X.X.I u X.X.X.F 8 X.X.X.V < X.X.",
"X.X.u o X.X.X.4 + X.X.X.E < X.X.",
"X.X.' d X.X.X.v = X.X.X.' v X.X.",
"E | | V X.X.X.V < X.X.X.' L Y F ",
"= u / 8 X.X.X.f 1 X.X.X.~ 8 p * ",
"X.X.~ 5 X.X.X.x = X.X.X.~ p X.X.",
"X.X.u . X.X.X.L * X.X.X.u O X.X.",
"X.X.V % X.X.X.[ x X.X.X.[ v X.X.",
"X.X.V < X.X.X.[ Y I R ' ..p X.X.",
"X.X.F + X.X.X./ 0 8 = 8 ( u X.X.",
"X.X.V = X.X.X.R w X.X.X.K r X.X.",
"X.X.G = X.X.X.u   X.X.X.u o X.X."
};
