/* XPM */
static char *colorIronBars4[] = {
/* columns rows colors chars-per-pixel */
"16 16 66 1 ",
"  c #161D55",
". c #171D55",
"X c #161D56",
"o c #171E57",
"O c #161D58",
"+ c #161E58",
"@ c #171E59",
"# c #171F5A",
"$ c #171E5B",
"% c #171F5B",
"& c #171F5C",
"* c #171F5D",
"= c #181F59",
"- c #19205E",
"; c #1A215F",
": c #182060",
"> c #182061",
", c #182161",
"< c #192161",
"1 c #192162",
"2 c #192163",
"3 c #1B2363",
"4 c #192164",
"5 c #192264",
"6 c #1A2264",
"7 c #1B2264",
"8 c #1A2266",
"9 c #1A2366",
"0 c #1A2367",
"q c #1C2365",
"w c #1C2366",
"e c #1C2466",
"r c #1C2467",
"t c #1A2268",
"y c #1A2368",
"u c #1B2369",
"i c #1A236A",
"p c #1B236A",
"a c #1B2469",
"s c #1B246A",
"d c #1B246B",
"f c #1C2468",
"g c #1D2569",
"h c #1D256A",
"j c #1D256B",
"k c #1C256D",
"l c #1C256E",
"z c #1C266F",
"x c #1C2670",
"c c #1D2671",
"v c #1D2672",
"b c #1D2773",
"n c #1E2877",
"m c #1F2979",
"M c #1F297A",
"N c #202872",
"B c #202975",
"V c #202976",
"C c #212B7D",
"Z c #212B80",
"A c #202B81",
"S c #212B81",
"D c #212C84",
"F c #212C85",
"G c #222D85",
"H c None",
/* pixels */
"HHi$HHH6=HHHw&HH",
"HHCiHHHAiHHHw$HH",
"HHCxliAG:HHHi=HH",
"HHB::&:B:HHHi*HH",
"HHj6HHHr:HHHi&HH",
"HH:XHHH-$HHHx=HH",
"HHS6HHH6$HHHA6HH",
"xSGdHHHi&HHHAljj",
"&:C:HHH6&HHHm:6&",
"HHn-HHH6&HHHn:HH",
"HH6.HHHx$HHH6$HH",
"HH6-HHHA6HHHA6HH",
"HHi&HHHAjjjAG:HH",
"HHw$HHHm-:$:N6HH",
"HHi$HHHj:HHHl:HH",
"HHd$HHH6XHHH6$HH"
};
