/* XPM */
static char *colorIronBars3[] = {
/* columns rows colors chars-per-pixel */
"16 16 47 1 ",
"  c #2F1C0F",
". c #301D0F",
"X c #311D0F",
"o c #321D0F",
"O c #331E0F",
"+ c #321D10",
"@ c #321E10",
"# c #331E10",
"$ c #351E10",
"% c #361F11",
"& c #352011",
"* c #362011",
"= c #372011",
"- c #372111",
"; c #372012",
": c #372112",
"> c #382011",
", c #3B2211",
"< c #382112",
"1 c #382212",
"2 c #392212",
"3 c #3A2212",
"4 c #3B2212",
"5 c #3A2313",
"6 c #3B2313",
"7 c #3C2312",
"8 c #3D2312",
"9 c #3E2312",
"0 c #3D2413",
"q c #3E2412",
"w c #3F2413",
"e c #3E2514",
"r c #3F2514",
"t c #402413",
"y c #402513",
"u c #402614",
"i c #422715",
"p c #432816",
"a c #452815",
"s c #472814",
"d c #442816",
"f c #472A17",
"g c #492A16",
"h c #492B17",
"j c #492B18",
"k c #4A2C18",
"l c None",
/* pixels */
"ll5@lllw@lll9@ll",
"llg5llla5lll9@ll",
"llgee5ak&lll5$ll",
"lla&&&&a&lll6@ll",
"llw&lll9&lll5$ll",
"ll&@lll&@llle@ll",
"lla5lll5@llla5ll",
"ugk6lll5@llljee9",
"@5p$lll5@lllp$&@",
"llu5lll5@lllu5ll",
"ll&Ollle@lll&@ll",
"ll5$lllj5lllf6ll",
"ll5$lllaywugk&ll",
"ll9@llla&$@&a5ll",
"ll5@lll9&llle&ll",
"ll5@lll5@lll&@ll"
};
