/* XPM */
static char *colorFlower1[] = {
/* columns rows colors chars-per-pixel */
"16 16 9 1 ",
"  c #106300",
". c #5B4536",
"X c #C82723",
"o c #D42A25",
"O c #E12C28",
"+ c #ED2F2A",
"@ c #FA312C",
"# c #168700",
"$ c None",
/* pixels */
"$$$$$$$$$$$$$$$$",
"$$$$$$$$$$$$$$$$",
"$$$$$$$$$$$$$$$$",
"$$$$$$$$$$$$$$$$",
"$$$$$$$$$$$$$$$$",
"$$$$$$$+@$$$$$$$",
"$$$$$$+@+@$$$$$$",
"$$$$$oOoOoO$$$$$",
"$$$$$$oOoO$$$$$$",
"$$$$$$X# $$$$$$$",
"$$$$$$$.$$$$$$$$",
"$$$$$$.#$$$$$$$$",
"$$$$$$$ #$$$$$$$",
"$$$$$$$$#.$$$$$$",
"$$$$$$$. $$$$$$$",
"$$$$$$$$ $$$$$$$"
};
