/* XPM */
static char *colorFlower0[] = {
/* columns rows colors chars-per-pixel */
"16 16 9 1 ",
"  c #20201E1E1E1E",
". c #22221F1F1F1F",
"X c #242421212121",
"o c #262623232323",
"O c #282825252525",
"+ c #101063630000",
"@ c #5B5B45453636",
"# c #161687870000",
"$ c None",
/* pixels */
"$$$$$$$$$$$$$$$$",
"$$$$$$$$$$$$$$$$",
"$$$$$$$$$$$$$$$$",
"$$$$$$$$$$$$$$$$",
"$$$$$$$$$$$$$$$$",
"$$$$$$$oO$$$$$$$",
"$$$$$$oooO$$$$$$",
"$$$$$.o.o.o$$$$$",
"$$$$$$.o.o$$$$$$",
"$$$$$$.#+$$$$$$$",
"$$$$$$$@$$$$$$$$",
"$$$$$$@#$$$$$$$$",
"$$$$$$$+#$$$$$$$",
"$$$$$$$$#@$$$$$$",
"$$$$$$$@+$$$$$$$",
"$$$$$$$$+$$$$$$$"
};
