/* XPM */
static char *colorIronBars9[] = {
/* columns rows colors chars-per-pixel */
"16 16 87 1 ",
"  c #7E4B59",
". c #814D5A",
"X c #824E5A",
"o c #854D59",
"O c #824E5C",
"+ c #834E5C",
"@ c #854E5D",
"# c #854F5D",
"$ c #85515E",
"% c #86505F",
"& c #87505F",
"* c #86515F",
"= c #87515F",
"- c #89505B",
"; c #8D515D",
": c #875160",
"> c #895160",
", c #885161",
"< c #895161",
"1 c #895261",
"2 c #8F5565",
"3 c #955662",
"4 c #965763",
"5 c #905465",
"6 c #905665",
"7 c #915765",
"8 c #925665",
"9 c #915666",
"0 c #915766",
"q c #915667",
"w c #905767",
"e c #935867",
"r c #9E5B67",
"t c #925768",
"y c #935869",
"u c #945968",
"i c #955969",
"p c #965969",
"a c #975A69",
"s c #975B6B",
"d c #985B6B",
"f c #995B6B",
"g c #9F5B68",
"h c #995C6B",
"j c #9A5B6C",
"k c #9A5B6D",
"l c #9A5C6C",
"z c #9B5D6E",
"x c #9C5D6E",
"c c #9D5D6E",
"v c #9C5E6E",
"b c #9D5E6E",
"n c #9E5F6F",
"m c #A15D6A",
"M c #A25D6A",
"N c #A35E6A",
"B c #A55E6B",
"V c #A6606D",
"C c #A8616E",
"Z c #A9616E",
"A c #AA616F",
"S c #AA626E",
"D c #AC626F",
"F c #A26072",
"G c #A36173",
"H c #A56375",
"J c #A66374",
"K c #A76476",
"L c #A86476",
"P c #AA6677",
"I c #AF697C",
"U c #BD6B76",
"Y c #B0697C",
"T c #B1697C",
"R c #B36B7F",
"E c #B46B7F",
"W c #B96B7A",
"Q c #BF7185",
"! c #BE7186",
"~ c #BE7286",
"^ c #BF7286",
"/ c #C27282",
"( c #C37283",
") c #C37489",
"_ c #C3748A",
"` c #C5768B",
"' c None",
/* pixels */
"''z&'''g&'''M,''",
"''/j'''^h'''M&''",
"''/LFb^_q'''b-''",
"''W22&qW2'''b,''",
"''Za'''Bq'''b:''",
"''e.'''3.'''L&''",
"''^a'''f&'''^f''",
"L^_b'''j,'''^KZM",
"&yRq'''g,'''T2q&",
"''Y3'''h&'''Ie''",
"''eo'''J&'''a+''",
"''b;'''^z'''^s''",
"''b-'''^JVZ^_q''",
"''M@'''Ee2-qUy''",
"''v:'''Z8'''Fq''",
"''v:'''a '''a.''"
};
