/* XPM */
static char *colorChiseledBrick8[] = {
/* columns rows colors chars-per-pixel */
"16 16 40 1 ",
"  c #3F3F3F",
". c #3E3E3E",
"X c #404040",
"o c #3F3F3F",
"O c #3C3C3C",
"+ c #3E3E3E",
"@ c #3D3D3D",
"# c #3E3E3E",
"$ c #3B3B3B",
"% c #3C3C3C",
"& c #3C3C3C",
"* c #323232",
"= c #3A3A3A",
"- c #373737",
"; c #343434",
": c #363636",
"> c #383838",
", c #383838",
"< c #323232",
"1 c #313131",
"2 c #363636",
"3 c #363636",
"4 c #363636",
"5 c #313131",
"6 c #343434",
"7 c #3D3D3D",
"8 c #353535",
"9 c #353535",
"0 c #343434",
"q c #343434",
"w c #313131",
"e c #373737",
"r c #3E3E3E",
"t c #3D3D3D",
"y c #373737",
"u c #393939",
"i c #3B3B3B",
"p c #323232",
"a c #313131",
"s c #494949",
/* pixels */
" .XoOo+@@@@#$%&*",
"o===-;:::;;>>>,<",
"O-1111111111;231",
"+:1 +++o+=oo*%45",
"@61 2>>--22;*%-1",
"7:1O890q33>:wo2<",
"$61.>0111O>;woe<",
"+:1O80151r2;woe1",
"$61O--111O>;w%e5",
"@61O8-trtO2;w+41",
"+:1o2-=2=22;w+y*",
"o21o6::66;;;w%45",
"@-;1wwwwwwwww+21",
"7==++=oo%+=++u2<",
"i3ye442222242-ep",
"1ap*5111**555511"
};
