/* XPM */
static char *colorFlower8[] = {
/* columns rows colors chars-per-pixel */
"16 16 7 1 ",
"  c #2F1300",
". c #106300",
"X c #444444",
"o c gray27",
"O c gray28",
"+ c #168700",
"@ c None",
/* pixels */
"@@@@@@@@@@@@@@@@",
"@@@@@@@@@@@@@@@@",
"@@@@@@@@@@@@@@@@",
"@@@@@@@@@@@@@@@@",
"@@@@@@@@@@@@@@@@",
"@@@@@@@oo@@@@@@@",
"@@@@@@ooooo@@@@@",
"@@@@@ooooo@@@@@@",
"@@@@@@ooooo@@@@@",
"@@@@@@o+.@@@@@@@",
"@@@@@@@ @@@@@@@@",
"@@@@@@ +@@@@@@@@",
"@@@@@@@.+@@@@@@@",
"@@@@@@@@+ @@@@@@",
"@@@@@@@ .@@@@@@@",
"@@@@@@@@.@@@@@@@"
};
