/* XPM */
static char *colorSand9[] = {
/* columns rows colors chars-per-pixel */
"16 16 256 2 ",
"   c #362026",
".  c #372026",
"X  c #372127",
"o  c #382127",
"O  c #392228",
"+  c #392228",
"@  c #3A2229",
"#  c #3A2329",
"$  c #3B232A",
"%  c #3C232A",
"&  c #3C242A",
"*  c #3D242B",
"=  c #3E252B",
"-  c #3E252C",
";  c #3F252C",
":  c #40262D",
">  c #40262D",
",  c #41262E",
"<  c #41272E",
"1  c #42272E",
"2  c #43282F",
"3  c #43282F",
"4  c #442830",
"5  c #452930",
"6  c #452931",
"7  c #462A31",
"8  c #472A32",
"9  c #472A32",
"0  c #482B33",
"q  c #482B33",
"w  c #492B33",
"e  c #4A2C34",
"r  c #4A2C34",
"t  c #4B2D35",
"y  c #4C2D35",
"u  c #4C2D36",
"i  c #4D2E36",
"p  c #4E2E37",
"a  c #4E2E37",
"s  c #4F2F37",
"d  c #4F2F38",
"f  c #503038",
"g  c #513039",
"h  c #513039",
"j  c #52313A",
"k  c #53313A",
"l  c #53313B",
"z  c #54323B",
"x  c #54323B",
"c  c #55333C",
"v  c #56333C",
"b  c #56333D",
"n  c #57343D",
"m  c #58343E",
"M  c #58353E",
"N  c #59353F",
"B  c #5A353F",
"V  c #5A363F",
"C  c #5B3640",
"Z  c #5B3640",
"A  c #5C3741",
"S  c #5D3741",
"D  c #5D3842",
"F  c #5E3842",
"G  c #5F3843",
"H  c #5F3943",
"J  c #603944",
"K  c #613944",
"L  c #613A44",
"P  c #623A45",
"I  c #623B45",
"U  c #633B46",
"Y  c #643B46",
"T  c #643C47",
"R  c #653C47",
"E  c #663D48",
"W  c #663D48",
"Q  c #673D48",
"!  c #683E49",
"~  c #683E49",
"^  c #693E4A",
"/  c #693F4A",
"(  c #6A3F4B",
")  c #6B404B",
"_  c #6B404C",
"`  c #6C404C",
"'  c #6D414C",
"]  c #6D414D",
"[  c #6E414D",
"{  c #6F424E",
"}  c #6F424E",
"|  c #70434F",
" . c #70434F",
".. c #714350",
"X. c #724450",
"o. c #724450",
"O. c #734551",
"+. c #744551",
"@. c #744552",
"#. c #754652",
"$. c #764653",
"%. c #764653",
"&. c #774754",
"*. c #774754",
"=. c #784854",
"-. c #794855",
";. c #794855",
":. c #7A4956",
">. c #7B4956",
",. c #7B4957",
"<. c #7C4A57",
"1. c #7D4A58",
"2. c #7D4B58",
"3. c #7E4B59",
"4. c #7E4B59",
"5. c #7F4C59",
"6. c #804C5A",
"7. c #804D5A",
"8. c #814D5B",
"9. c #824D5B",
"0. c #824E5C",
"q. c #834E5C",
"w. c #844E5D",
"e. c #844F5D",
"r. c #854F5D",
"t. c #85505E",
"y. c #86505E",
"u. c #87505F",
"i. c #87515F",
"p. c #885160",
"a. c #895160",
"s. c #895261",
"d. c #8A5261",
"f. c #8A5361",
"g. c #8B5362",
"h. c #8C5362",
"j. c #8C5463",
"k. c #8D5463",
"l. c #8E5464",
"z. c #8E5564",
"x. c #8F5565",
"c. c #905665",
"v. c #905665",
"b. c #915666",
"n. c #915766",
"m. c #925767",
"M. c #935867",
"N. c #935868",
"B. c #945868",
"V. c #955969",
"C. c #955969",
"Z. c #96596A",
"A. c #975A6A",
"S. c #975A6A",
"D. c #985B6B",
"F. c #985B6B",
"G. c #995B6C",
"H. c #9A5C6C",
"J. c #9A5C6D",
"K. c #9B5C6D",
"L. c #9C5D6E",
"P. c #9C5D6E",
"I. c #9D5E6E",
"U. c #9E5E6F",
"Y. c #9E5E6F",
"T. c #9F5F70",
"R. c #9F5F70",
"E. c #A06071",
"W. c #A16071",
"Q. c #A16072",
"!. c #A26172",
"~. c #A36172",
"^. c #A36173",
"/. c #A46273",
"(. c #A56274",
"). c #A56374",
"_. c #A66375",
"`. c #A66375",
"'. c #A76476",
"]. c #A86476",
"[. c #A86476",
"{. c #A96577",
"}. c #AA6577",
"|. c #AA6678",
" X c #AB6678",
".X c #AC6679",
"XX c #AC6779",
"oX c #AD677A",
"OX c #AD687A",
"+X c #AE687A",
"@X c #AF687B",
"#X c #AF697B",
"$X c #B0697C",
"%X c #B1697C",
"&X c #B16A7D",
"*X c #B26A7D",
"=X c #B36B7E",
"-X c #B36B7E",
";X c #B46B7F",
":X c #B46C7F",
">X c #B56C7F",
",X c #B66C80",
"<X c #B66D80",
"1X c #B76D81",
"2X c #B86E81",
"3X c #B86E82",
"4X c #B96E82",
"5X c #BA6F83",
"6X c #BA6F83",
"7X c #BB7083",
"8X c #BB7084",
"9X c #BC7084",
"0X c #BD7185",
"qX c #BD7185",
"wX c #BE7186",
"eX c #BF7286",
"rX c #BF7287",
"tX c #C07387",
"yX c #C07387",
"uX c #C17388",
"iX c #C27488",
"pX c #C27489",
"aX c #C37489",
"sX c #C4758A",
"dX c #C4758A",
"fX c #C5768B",
"gX c #C6768B",
"hX c #C6768B",
"jX c #C7778C",
"kX c #C7778C",
"lX c #C8778D",
"zX c #C9788D",
"xX c #C9788E",
"cX c #CA798E",
"vX c #CB798F",
"bX c #CB798F",
"nX c #CC7A90",
"mX c #CD7A90",
"MX c #CD7B90",
"NX c #CE7B91",
"BX c #CE7B91",
"VX c #CF7C92",
"CX c #D07C92",
"ZX c #D07C93",
"AX c #D17D93",
"SX c #D27D94",
"DX c #D27E94",
"FX c #D37E94",
"GX c #D47E95",
"HX c #D47F95",
"JX c #D57F96",
"KX c #D57F96",
"LX c #D68097",
"PX c #D78097",
"IX c #D78198",
"UX c #D88198",
/* pixels */
"OXeXwX8XuX7X,X5XtX0X4X0X6XZX%X6X",
"qX5X0XuX].,X:X<XpXtXPX9X8X5X0XdX",
"qXfXmX3X4X3X8X8X9XtXtXuX4X-X,XbX",
"=X2X4X0X:XwX>X8XE.2X6XtXpXiX7X}.",
"uX2XuX2XuXuXtXuX-X=X,XtX<X.XhX$X",
"=XqX;XIX<XdXqX7X3XxX9XoX;X>X7X.X",
"].9X@X8X}.rX4X,X3X3XuXDX9XtX0X2X",
"7X3XtX5X8X>XiXCX0X*X3X<XwX0XcXtX",
"eX9XdXyX9X<XuX9X<XKX X9X2X4X8X8X",
" X5XeX6X5X7X-X,X7X9X9XkX7X0X2XfX",
"wX9XL.rX@XdX4X4XkXzXpX2X7XJX3X7X",
"-XrXiXOX0X3X9X4X0X9X5XFX,X,X>X`.",
"fX0X<XkXwX,XrX[.+X9X4X>X0XrX;X2X",
"wXtX=X!.>X,X<XzX0XcXtXwXyX3XtX>X",
"qX2X3X;X8X>X9XrX#XwX'.3XtX@X;X0X",
"2XyX3X XLXqX@XdX7XkX>X8X9X8X3X+X"
};
