/* XPM */
static char *colorFlower12[] = {
/* columns rows colors chars-per-pixel */
"16 16 8 1 ",
"  c #2F2F13130000",
". c #101063630000",
"X c #161687870000",
"o c #5B5B7A7ABCBC",
"O c #5E5E7F7FC3C3",
"+ c #60608181C7C7",
"@ c #64648686CECE",
"# c None",
/* pixels */
"################",
"################",
"################",
"################",
"################",
"#######@@#######",
"######@o+O+#####",
"#####+++@o######",
"######@+oo+#####",
"######+X.#######",
"####### ########",
"###### X########",
"#######.X#######",
"########X ######",
"####### .#######",
"########.#######"
};
