/* XPM */
static char *colorIronBars15[] = {
/* columns rows colors chars-per-pixel */
"16 16 90 1 ",
"  c #B8B8B8",
". c #BABBB9",
"X c #BBBBBA",
"o c #BBBBBB",
"O c #BEBAB8",
"+ c #BCBCBC",
"@ c #BDBCBD",
"# c #BEBDBD",
"$ c #BEBFBE",
"% c #BEBEBF",
"& c #BFBEBF",
"* c #BEBFBF",
"= c #BFBFBF",
"- c #C1BEBB",
"; c #BFC0BF",
": c #C4C0BC",
"> c #BFBFC0",
", c #C1C0C0",
"< c #C0C0C1",
"1 c #C1C0C1",
"2 c #C1C1C1",
"3 c #C1C0C2",
"4 c #C6C6C5",
"5 c #C5C5C6",
"6 c #C6C4C6",
"7 c #C6C6C6",
"8 c #C7C7C6",
"9 c #C7C7C7",
"0 c #CAC6C3",
"q c #C8C7C6",
"w c #CBC8C4",
"e c #C7C6C8",
"r c #C7C7C8",
"t c #C8C7C9",
"y c #C6C8C8",
"u c #C8C8C8",
"i c #C9C9C8",
"p c #C9CAC9",
"a c #C9C9CA",
"s c #CACACA",
"d c #CBCACA",
"f c #CBCBCA",
"g c #CBCDCC",
"h c #CCCCCC",
"j c #CDCDCC",
"k c #CDCDCD",
"l c #CDCECC",
"z c #CECECD",
"x c #CECDCE",
"c c #D1CDC8",
"v c #D2CDC9",
"b c #D4CFCB",
"n c #D0CFCF",
"m c #D5D0CC",
"M c #D6D1CD",
"N c #D8D3CE",
"B c #CFCFD0",
"V c #D0CFD0",
"C c #CFD0D0",
"Z c #D0D0D0",
"A c #D1D2D1",
"S c #D4D4D4",
"D c #D5D5D5",
"F c #D7D7D7",
"G c #D9D4D0",
"H c #DAD5D0",
"J c #DAD5D1",
"K c #DBD6D0",
"L c #DCD6D1",
"P c #D7D8D7",
"I c #D8D9D8",
"U c #D9D9D9",
"Y c #DADBDA",
"T c #DFDFDF",
"R c #E0E0DF",
"E c #E6E2DD",
"W c #E6E2DE",
"Q c #EAE1D9",
"! c #E2E2E2",
"~ c #E3E2E3",
"^ c #EEEBE6",
"/ c #EEEBE7",
"( c #EBEAEA",
") c #EAEAEB",
"_ c #EAEBEB",
"` c #EBEBEB",
"' c #EEEEEE",
"] c #EEEEEF",
"[ c #F0F0F0",
"{ c None",
/* pixels */
"{{B&{{{v&{{{M<{{",
"{{^x{{{_x{{{v&{{",
"{{^ISZ_]7{{{Z-{{",
"{{E77;rE7{{{V<{{",
"{{Gi{{{M7{{{Z>{{",
"{{i.{{{0+{{{I<{{",
"{{`f{{{x&{{{_x{{",
"I`[Z{{{x<{{{_PGM",
"&i!7{{{v<{{{R7y&",
"{{Tw{{{x&{{{Ti{{",
"{{iO{{{F;{{{y&{{",
"{{Z:{{{`x{{{_g{{",
"{{V<{{{`LNL`[7{{",
"{{b&{{{~87<7Qi{{",
"{{x&{{{Gq{{{Sr{{",
"{{Z;{{{i.{{{iX{{"
};
