/* XPM */
static char *colorFlower3[] = {
/* columns rows colors chars-per-pixel */
"16 16 8 1 ",
"  c #2F1300",
". c #482B17",
"X c #4B2C18",
"o c #4C2D18",
"O c #4F2F19",
"+ c #106300",
"@ c #168700",
"# c None",
/* pixels */
"################",
"################",
"################",
"################",
"################",
"#######oo#######",
"######oXooo#####",
"#####oooOX######",
"######Oo..o#####",
"######o@+#######",
"####### ########",
"###### @########",
"#######+@#######",
"########@ ######",
"####### +#######",
"########+#######"
};
