/* XPM */
static char *colorIronBars10[] = {
/* columns rows colors chars-per-pixel */
"16 16 70 1 ",
"  c #26781E",
". c #277B1F",
"X c #287A1E",
"o c #297F1F",
"O c #277C20",
"+ c #287C20",
"@ c #287E20",
"# c #297F20",
"$ c #288020",
"% c #288021",
"& c #298021",
"* c #298121",
"= c #2A8120",
"- c #298220",
"; c #298221",
": c #2B8623",
"> c #2B8822",
", c #2B8823",
"< c #2B8923",
"1 c #2B8A23",
"2 c #2B8B23",
"3 c #2D8822",
"4 c #2C8923",
"5 c #2D8B22",
"6 c #2C8B23",
"7 c #2C8C23",
"8 c #2C8A24",
"9 c #2C8C24",
"0 c #2C8D24",
"q c #2D8E24",
"w c #2D8F24",
"e c #2D9125",
"r c #2E9025",
"t c #2E9125",
"y c #2E9225",
"u c #2F9425",
"i c #2F9426",
"p c #2F9526",
"a c #309123",
"s c #309124",
"d c #309424",
"f c #319424",
"g c #319524",
"h c #319625",
"j c #309726",
"k c #329825",
"l c #319927",
"z c #319A27",
"x c #339A26",
"c c #339B26",
"v c #349C26",
"b c #329D28",
"n c #329E28",
"m c #329F28",
"M c #33A029",
"N c #33A229",
"B c #35A62A",
"V c #35A72A",
"C c #35A82A",
"Z c #36AA2B",
"A c #36AA2C",
"S c #39A929",
"D c #38AA2A",
"F c #3AB52D",
"G c #3BB52D",
"H c #39B42E",
"J c #39B52E",
"K c #3BB92F",
"L c #3BBB30",
"P c None",
/* pixels */
"PPi#PPPt#PPPh&PP",
"PPFtPPPFtPPPd#PP",
"PPFmliFK8PPPh#PP",
"PPD,,#2D,PPPt&PP",
"PPlqPPPh2PPPi&PP",
"PP2OPPP3OPPPN&PP",
"PPFqPPPt#PPPFtPP",
"NFLiPPPt&PPPFmlh",
"&8A3PPPt&PPPZ:2&",
"PPZ3PPPt&PPPV8PP",
"PPq PPPm&PPPqOPP",
"PPh&PPPFtPPPFtPP",
"PPi&PPPFlhvFL,PP",
"PPd#PPPA32&2DqPP",
"PPi#PPPv8PPPl3PP",
"PPh&PPPq PPPq.PP"
};
