/* XPM */
static char *colorIronBars0[] = {
/* columns rows colors chars-per-pixel */
"16 16 37 1 ",
"  c #141212",
". c #151212",
"X c #151312",
"o c #151213",
"O c #151313",
"+ c #161312",
"@ c #151314",
"# c #161414",
"$ c #171414",
"% c #171514",
"& c #171415",
"* c #161515",
"= c #171515",
"- c #171615",
"; c #181515",
": c #181615",
"> c #191615",
", c #1A1615",
"< c #181616",
"1 c #191616",
"2 c #191716",
"3 c #191717",
"4 c #1A1616",
"5 c #1A1716",
"6 c #1B1716",
"7 c #1A1817",
"8 c #1A1818",
"9 c #1B1818",
"0 c #1B1919",
"q c #1C1919",
"w c #1E1918",
"e c #1D1A19",
"r c #1C1A1A",
"t c #1F1B1A",
"y c #1E1B1B",
"u c #1F1C1C",
"i c None",
/* pixels */
"ii<Oiii>Oiii,Oii",
"iit:iiiy:iii>oii",
"iit831yu&iii1Xii",
"iie##O&e#iii1@ii",
"ii5=iii4&iii1Oii",
"ii= iii$ iii8Oii",
"iiy-iii:Oiiiy;ii",
"9yu1iii<Oiiiy75,",
"O*r#iii>Oiiiq#*O",
"iiq%iii:Oiii0=ii",
"ii=.iii8Oiii=oii",
"ii1+iiiy:iiiy-ii",
"ii1Oiiiy656yu&ii",
"ii>oiiir&#O#w=ii",
"ii1Oiii6%iii3&ii",
"ii2Oiii= iii= ii"
};
