/* XPM */
static char *colorGravel2[] = {
/* columns rows colors chars-per-pixel */
"16 16 55 1 ",
"  c #2A3812",
". c #222D0E",
"X c #324316",
"o c #2D3D13",
"O c #2A3912",
"+ c #263410",
"@ c #324416",
"# c #2C3D13",
"$ c #212C0E",
"% c #202C0D",
"& c #202C0E",
"* c #324315",
"= c #2D3C13",
"- c #212C0E",
"; c #273511",
": c #253210",
"> c #293812",
", c #334616",
"< c #24300F",
"1 c #253210",
"2 c #314215",
"3 c #232F0F",
"4 c #2F4015",
"5 c #283712",
"6 c #293912",
"7 c #212C0E",
"8 c #354616",
"9 c #273511",
"0 c #2C3C13",
"q c #334215",
"w c #222D0E",
"e c #273411",
"r c #283511",
"t c #222F0F",
"y c #2D3B13",
"u c #1F290D",
"i c #2D3C13",
"p c #202C0E",
"a c #364A18",
"s c #222E0E",
"d c #202C0E",
"f c #283511",
"g c #253310",
"h c #1F290D",
"j c #232F0F",
"k c #1F2B0D",
"l c #364918",
"z c #354917",
"x c #24300F",
"c c #334516",
"v c #222F0F",
"b c #253310",
"n c #2B3B13",
"m c #273511",
"M c #3B511A",
/* pixels */
" .XoO+O@##$ooOO%",
".&*=-;o:>$$OO,<O",
"oO==$O1OOO+O,23o",
";O=$$OOO45+o637o",
"8O+OOoO49-Oo+0OO",
"qweO;o+O--OOeOO8",
"rwO44t+OOO;OOyOu",
"wOi49pOaasoyyydO",
"O*fOpO0g&hOjdddo",
"OfkOOOe0OOO0OOOo",
"+0O044+0yyd0+0qq",
"elz0th0Ojdd0+0rx",
"0cvO0O,b0OO04OxO",
"*eOOe0,g0+49h+0O",
"f+,n+0g&O+4tOeO=",
"d06kOOO0O0OOO0Om"
};
