/* XPM */
static char *colorCobble2[] = {
/* columns rows colors chars-per-pixel */
"16 16 80 1 ",
"  c #293812",
". c #23300F",
"X c #222F0F",
"o c #354817",
"O c #334616",
"+ c #293912",
"@ c #263411",
"# c #314416",
"$ c #293812",
"% c #1F2A0E",
"& c #212D0E",
"* c #253310",
"= c #324516",
"- c #2B3C13",
"; c #344717",
": c #2B3B13",
"> c #243110",
", c #2B3B13",
"< c #2C3D14",
"1 c #2D3D14",
"2 c #23300F",
"3 c #324416",
"4 c #314316",
"5 c #283712",
"6 c #2E3F14",
"7 c #2B3A13",
"8 c #202C0E",
"9 c #2F4015",
"0 c #2A3A13",
"q c #304115",
"w c #263411",
"e c #2A3912",
"r c #2D3E14",
"t c #202C0E",
"y c #324516",
"u c #1F2B0E",
"i c #2F4115",
"p c #243110",
"a c #1E2A0D",
"s c #1F2B0E",
"d c #2F4115",
"f c #253311",
"g c #344817",
"h c #283812",
"j c #263411",
"k c #344717",
"l c #344717",
"z c #384D19",
"x c #304215",
"c c #273611",
"v c #222E0F",
"b c #304215",
"n c #2A3912",
"m c #2B3B13",
"M c #2D3E14",
"N c #283712",
"B c #273511",
"V c #1E290D",
"C c #1D280D",
"Z c #324516",
"A c #212E0F",
"S c #2F4014",
"D c #2D3E14",
"F c #253310",
"G c #2C3D13",
"H c #23300F",
"J c #233110",
"K c #1E290D",
"L c #212D0E",
"P c #243210",
"I c #222F0F",
"U c #263511",
"Y c #1F2A0D",
"T c #202C0E",
"R c #334717",
"E c #2A3A13",
"W c #222E0F",
"Q c #212D0F",
"! c #1F2B0E",
"~ c #3B511A",
/* pixels */
" .XoO+@O#$.%&*=o",
"-XO;:>O,o<1X23++",
"X45++%O6++78.X90",
"XXq w8+er+8tyXXu",
"iO8888p+asOd++Xf",
"ghjk#lX8pzx+r+:p",
"c:vbn5$XXX+<mMv&",
"NcB8VC8-ZeA2juA>",
"XOOOeA;SOODFqGHX",
"X+:+<aJjOOF+KXOO",
"%L-+aXXP&++aIOOn",
"8I8&X#knUYXXg7M+",
"Xxi9T 3rROXXOEE&",
"#=1:pIaJBE X5m+8",
"JG#+B+$AWQ+XF88H",
",!c:+8>3++aP3OXe"
};
