/* XPM */
static char *colorStoneHalfSlabs_side0[] = {
/* columns rows colors chars-per-pixel */
"16 16 12 1 ",
"  c #221F1F",
". c #211E1E",
"X c #221F1F",
"o c #211E1E",
"O c #1E1C1C",
"+ c #1F1C1C",
"@ c #1E1B1B",
"# c #1D1B1B",
"$ c #1A1818",
"% c #1B1919",
"& c #191717",
"* c #1C1A1A",
/* pixels */
" .... XXoX ....O",
" O++++++@+++#OO$",
" #@@#@@@+@OOO+O%",
" +OOO#O+OO@@@@@%",
" ++@@@@@@@+++++&",
".@OOO@@@O#OO@@#%",
"X+OOO@++OOOO+++&",
"O%%$$$$$$&$$$$%%",
" XXoX.   XXXXXX+",
" @@@@@@O#OO@@@+%",
" O+@@++@#@+++OO%",
"oOOO@OOO++OOO++&",
" @@@@@@@++@@@@@%",
" +@+#OO@@@#@OO+*",
" OO@@@@@OO++O@@%",
"@$$$&**%%%%$$$%%"
};
