/* XPM */
static char *colorFlower0[] = {
/* columns rows colors chars-per-pixel */
"16 16 7 1 ",
"  c #1D1B1B",
". c #1F1D1D",
"X c #2F1300",
"o c #211E1E",
"O c #106300",
"+ c #168700",
"@ c None",
/* pixels */
"@@@@@@@@@@@@@@@@",
"@@@@@@@@@@@@@@@@",
"@@@@@@@@@@@@@@@@",
"@@@@@@@@@@@@@@@@",
"@@@@@@@@@@@@@@@@",
"@@@@@@@oo@@@@@@@",
"@@@@@@o ...@@@@@",
"@@@@@...o @@@@@@",
"@@@@@@o.  .@@@@@",
"@@@@@@.+O@@@@@@@",
"@@@@@@@X@@@@@@@@",
"@@@@@@X+@@@@@@@@",
"@@@@@@@O+@@@@@@@",
"@@@@@@@@+X@@@@@@",
"@@@@@@@XO@@@@@@@",
"@@@@@@@@O@@@@@@@"
};
