/* XPM */
static char *flower_stem[] = {
"16 16 4 1 ",
"  c None",
"# c #106300",
"X c #168700",
". c #5b4536",
"                ",
"                ",
"                ",
"                ",
"                ",
"                ",
"                ",
"                ",
"                ",
"       X#       ",
"       .        ",
"      .X        ",
"       #X       ",
"        X.      ",
"       .#       ",
"        #       "
};
