/* XPM */
static char *flower_seeds[] = {
"16 16 8 1 ",
"  c None",
"# c #106300",
"X c #168700",
". c #2F1300",
"r c #fa312c",
"g c #4ef63e",
"b c #2c3aaf",
"y c #fff832",
"                ",
"                ",
"                ",
"                ",
"       #.       ",
"       X        ",
"                ",
"    .  rg X#    ",
"    X# yb  .    ",
"                ",
"        #       ",
"       .X       ",
"                ",
"                ",
"                ",
"                "
};
