/* XPM */
static char *flowerSeeds[] = {
"16 16 15 1",
"  c None",
". c #1c2b57",
"# c #31571c",
"a c #354f9f",
"b c #549331",
"c c #571c1c",
"d c #617bca",
"e c #7189cf",
"f c #768cd1",
"g c #87ca61",
"h c #933131",
"i c #93cf71",
"j c #ca6161",
"k c #cf7171",
"l c #d17676",
"                ",
"                ",
"                ",
"                ",
"     k     e    ",
"     j      e   ",
"     c      dd  ",
"    k   gb  ..  ",
"    k l ##      ",
"   jh c         ",
"   cc   i  fa   ",
"       gb  ..   ",
"       ##       ",
"                ",
"                ",
"                "
};
